<?xml version="1.0" encoding="UTF-8" standalone="no" ?>
<!DOCTYPE svg PUBLIC "-//W3C//DTD SVG 1.1//EN" "http://www.w3.org/Graphics/SVG/1.1/DTD/svg11.dtd">
<svg xmlns="http://www.w3.org/2000/svg" xmlns:xlink="http://www.w3.org/1999/xlink" version="1.1" width="1000" height="1000" viewBox="0 0 1000 1000" xml:space="preserve">
<desc>Created with Fabric.js 3.6.6</desc>
<defs>
</defs>
<g transform="matrix(3.9 0 0 3.9 499.95 499.74)"  >
<g style=""   >
		<g transform="matrix(2.85 -2.48 2.48 2.85 0 0)" id="rect833"  >
<rect style="stroke: none; stroke-width: 6.46499; stroke-dasharray: none; stroke-linecap: butt; stroke-dashoffset: 0; stroke-linejoin: round; stroke-miterlimit: 4; fill: rgb(51,51,51); fill-rule: nonzero; opacity: 1;"  x="-5.2916665" y="-32.0334815" rx="0" ry="0" width="10.583333" height="64.066963" />
</g>
		<g transform="matrix(-2.85 -2.48 -2.48 2.85 0 0)" id="rect833-5"  >
<rect style="stroke: none; stroke-width: 6.46499; stroke-dasharray: none; stroke-linecap: butt; stroke-dashoffset: 0; stroke-linejoin: round; stroke-miterlimit: 4; fill: rgb(51,51,51); fill-rule: nonzero; opacity: 1;"  x="-5.2916665" y="-32.0334815" rx="0" ry="0" width="10.583333" height="64.066963" />
</g>
		<g transform="matrix(3.78 0 0 3.78 -34.02 37)" id="rect833-6"  >
<path style="stroke: none; stroke-width: 6.46499; stroke-dasharray: none; stroke-linecap: butt; stroke-dashoffset: 0; stroke-linejoin: round; stroke-miterlimit: 4; fill: rgb(51,51,104); fill-rule: nonzero; opacity: 1;"  transform=" translate(-38.06, -62.42)" d="M 22.045087 73.333295 L 30.031161 80.278092 L 54.070523 52.633269 L 47.05803 44.569161 Z" stroke-linecap="round" />
</g>
		<g transform="matrix(3.78 0 0 3.78 0 -37)" id="rect833-2"  >
<path style="stroke: none; stroke-width: 6.46499; stroke-dasharray: none; stroke-linecap: butt; stroke-dashoffset: 0; stroke-linejoin: round; stroke-miterlimit: 4; fill: rgb(214,51,51); fill-opacity: 0.51; fill-rule: nonzero; opacity: 1;"  transform=" translate(-47.06, -42.84)" d="m 30.031161 24.988444 l -7.986075 6.944797 c 8.337627 9.588063 16.675267 19.176116 25.012944 28.764134 L 72.070973 31.933241 L 64.084898 24.988444 L 47.05803 44.569161 Z" stroke-linecap="round" />
</g>
</g>
</g>
</svg>
